<svg xmlns="http://www.w3.org/2000/svg" viewBox="0 0 128 128" role="img" aria-label="PhotoGuard">
  <rect width="128" height="128" rx="24" fill="#155e63"/>
  <path d="M36 46h12l6-8h20l6 8h12a10 10 0 0 1 10 10v28a10 10 0 0 1-10 10H36a10 10 0 0 1-10-10V56a10 10 0 0 1 10-10Z" fill="#f7f6f1"/>
  <circle cx="64" cy="70" r="18" fill="#f2b84b"/>
  <circle cx="64" cy="70" r="10" fill="#155e63"/>
  <path d="M91 32v16c0 20-11 32-27 39-16-7-27-19-27-39V32c14 0 20-5 27-12 7 7 13 12 27 12Z" fill="#e05c50" opacity=".95"/>
  <path d="M54 55 62 63 78 46" fill="none" stroke="#fff" stroke-width="8" stroke-linecap="round" stroke-linejoin="round"/>
</svg>
